<?xml version="1.0" standalone="no"?><!DOCTYPE svg PUBLIC "-//W3C//DTD SVG 1.1//EN" "http://www.w3.org/Graphics/SVG/1.1/DTD/svg11.dtd"><svg t="1681439122660" class="icon" viewBox="0 0 1024 1024" version="1.1" xmlns="http://www.w3.org/2000/svg" p-id="2820" xmlns:xlink="http://www.w3.org/1999/xlink" width="200" height="200"><path d="M512 301.176471C395.745882 301.176471 301.176471 395.745882 301.176471 512S395.745882 722.823529 512 722.823529 722.823529 628.254118 722.823529 512 628.254118 301.176471 512 301.176471z m0 361.411764C428.995765 662.588235 361.411765 595.004235 361.411765 512S428.995765 361.411765 512 361.411765 662.588235 428.995765 662.588235 512 595.004235 662.588235 512 662.588235zM542.117647 240.941176H481.882353V60.235294h60.235294v180.705882z m-60.235294 542.117648h60.235294v180.705882H481.882353v-180.705882z m481.882353-301.176471v60.235294h-180.705882V481.882353h180.705882zM240.941176 542.117647H60.235294V481.882353h180.705882v60.235294z m484.050824-200.523294l-42.586353-42.586353 127.759059-127.759059 42.586353 42.586353-127.759059 127.759059z m-425.984 340.811294l42.586353 42.586353-127.759059 127.759059-42.586353-42.586353 127.759059-127.759059z m425.984 0l127.759059 127.759059-42.586353 42.586353-127.759059-127.759059 42.586353-42.586353zM299.008 341.594353L171.248941 213.835294l42.586353-42.586353 127.759059 127.759059-42.586353 42.586353z" p-id="2821" fill="#d8cd04"></path></svg>